<?xml version="1.0" encoding="UTF-8" standalone="no"?>
<svg
   width="200"
   height="200"
   viewBox="0 0 200 200"
   version="1.1"
   id="svg2"
   xmlns:xlink="http://www.w3.org/1999/xlink"
   xmlns="http://www.w3.org/2000/svg"
   xmlns:svg="http://www.w3.org/2000/svg">
  <defs
     id="defs2">
    <linearGradient
       id="linearGradient4">
      <stop
         style="stop-color:#0b62c1;stop-opacity:1;"
         offset="0.19546744"
         id="stop11" />
      <stop
         style="stop-color:#09a8ff;stop-opacity:1;"
         offset="0.82058549"
         id="stop4" />
      <stop
         style="stop-color:#09a8ff;stop-opacity:0;"
         offset="1"
         id="stop5" />
    </linearGradient>
    <radialGradient
       xlink:href="#linearGradient4"
       id="radialGradient5"
       cx="83.950562"
       cy="104.78512"
       fx="83.950562"
       fy="104.78512"
       r="99.242218"
       gradientTransform="matrix(0.92986237,0.00336082,-0.00372166,1.01996,20.55365,-4.6264179)"
       gradientUnits="userSpaceOnUse" />
  </defs>
  <g
     id="g2"
     style="fill:#00ff00">
    <path
       style="fill:#ffffff;fill-opacity:1;stroke-width:10;stroke-linecap:round;stroke-linejoin:round"
       d="m 169.95087,62.472704 -34.36892,18.202133 -7.45381,-18.54822 22.89291,-0.557695 z"
       id="path4" />
    <path
       style="fill:#ffffff;fill-opacity:1;stroke-width:10;stroke-linecap:round;stroke-linejoin:round"
       d="m 159.96835,136.63711 c 0,0 -67.634477,37.07372 -58.78355,48.76363 8.85094,11.68991 -50.600604,-124.247039 -55.944563,-116.899096 -5.343958,7.347943 54.441579,-23.045822 53.606585,-32.731747 -0.834993,-9.685925 2.170988,-7.347943 2.170988,-7.347943 l 4.50896,13.693894 7.84894,27.888784 21.70983,32.731748 18.03586,16.03187 z"
       id="path3" />
    <path
       d="m 96.987123,-3.3608776 c 0.188349,1.4847871 0.267579,2.0793765 0.451295,3.40655781 l 0.09081,0.8157417 0.07784,0.52783279 0.389201,2.3992405 0.285415,1.54751 0.622723,3.2989549 0.389202,1.8594129 0.817321,3.826788 0.45407,1.979374 1.44005,6.345991 1.01192,4.462586 0.48002,2.171313 0.96002,4.270648 0.42813,1.883404 0.79137,3.538879 0.28542,1.319583 2.14061,8.541295 0.7784,2.759127 0.37623,1.211616 0.71353,2.255286 0.29839,0.827738 1.63465,4.066712 1.38815,3.071028 0.79138,1.667472 3.47688,6.921809 1.95899,3.562872 4.02175,7.101751 1.97197,3.166998 1.946,3.083024 0.9211,1.367567 1.80331,2.591179 0.80434,1.067663 3.73633,4.438589 3.1785,3.454915 1.84222,1.8954 3.84012,3.89877 2.07574,2.00336 4.21634,4.05472 2.1536,2.00336 4.32014,3.95875 2.10168,1.85942 4.13851,3.61086 1.92007,1.58349 3.68444,2.99906 1.56978,1.18762 1.53087,1.11564 0.6746,0.46786 1.29734,0.86371 0.54489,0.3239 2.5298,1.52353 1.29735,0.83972 0.44109,0.3599 0.73948,0.65979 0.14271,0.28791 0.12974,0.53982 -0.16865,0.25193 -0.49299,0.47985 -0.49299,0.22792 -1.16761,0.47985 -0.85624,0.25192 -1.88114,0.51584 -1.2195,0.28791 -2.62062,0.6238 -1.60871,0.37188 -6.29209,1.67947 -4.33312,1.40355 -2.20548,0.81575 -8.89974,3.57487 -4.33311,2.13532 -8.53649,4.46259 -3.85309,2.43522 -3.7623,2.45923 -1.72545,1.2476 -3.32119,2.5072 -1.47897,1.25961 -2.23142,2.1953 -1.86818,2.02735 -1.03787,1.21163 -4.34609,5.21835 -1.97196,2.63916 -5.87694,7.88151 -1.73844,2.31527 -0.68759,0.93569 -1.271387,1.70347 -0.389202,0.51584 -1.647619,2.21929 -0.778404,1.09165 -0.765432,1.05568 -0.311361,0.46785 -0.596775,0.85173 -0.207574,0.3119 -0.791378,1.06766 -0.402175,0.38387 -0.155681,0.036 -0.298387,-0.048 -0.142708,-0.16795 -0.272441,-0.45586 -0.15568,-0.37188 -0.467044,-1.43954 -0.454068,-1.58349 -0.27244,-1.03168 -0.583804,-2.1953 -0.337308,-1.25961 -0.674617,-2.61517 -0.350281,-1.37957 -1.414099,-5.6742 -0.622724,-2.62716 -0.596775,-2.5432 -0.259469,-1.11564 -0.467043,-2.11134 -0.168653,-0.81574 -2.29629,-9.71692 -1.803302,-6.45396 -1.024897,-3.179 -2.14061,-6.33399 -1.193552,-3.10701 -2.451971,-6.15406 -1.323287,-2.98705 -2.737384,-5.91413 -1.453021,-2.8311 -2.98388,-5.60223 -1.56978,-2.66315 -3.191455,-5.21836 -1.673568,-2.44722 -3.386056,-4.7745 -1.751407,-2.1953 -9.743017,-11.56433 -6.408854,-6.981789 -3.100642,-3.071029 -3.100641,-2.999049 -1.504913,-1.379564 -3.009827,-2.699145 -1.465994,-1.235609 -2.893066,-2.375249 -1.401127,-1.055665 -2.776305,-2.039354 -1.33626,-0.887719 -3.943911,-2.915077 -0.908137,-0.815742 -0.285415,-0.299906 -0.441095,-0.551824 v -0.143955 l 0.324334,-0.179942 0.531909,-0.107966 0.402176,-0.03599 1.971955,-0.143955 1.440047,-0.02399 3.152534,-0.012 1.894116,0.03598 3.995804,0.119963 2.179531,0.09596 4.423926,0.19194 2.607652,0.08396 1.154632,0.02399 4.242299,0.012 1.725463,-0.08396 3.217399,-0.25192 1.440048,-0.239923 2.776306,-0.53983 1.440045,-0.395876 5.539639,-1.727452 3.360108,-1.2596 1.530862,-0.695781 2.957933,-1.439543 1.336259,-0.803746 2.607652,-1.655476 1.180578,-0.923708 2.296291,-1.931389 1.050845,-1.067662 2.049795,-2.219297 0.947058,-1.235609 c 5.985148,-7.223147 7.971046,-12.195259 10.378714,-17.202553 l 0.739484,-1.607492 0.402175,-1.031673 0.843271,-2.195305 0.428121,-1.247604 0.856244,-2.543195 0.402176,-1.319584 2.088716,-6.825837 1.206525,-3.8387863 0.505962,-1.5715019 0.973005,-2.9270734 0.389201,-1.1276348 0.752456,-2.05135059 0.298389,-0.70777591 0.544882,-1.2116165 0.194602,-0.3119012 m -39.036937,79.6787846 7.991608,8.097436 5.228278,5.914127 2.529811,3.166998 4.981783,6.453966 2.374131,3.37093 4.644474,6.82584 2.153584,3.49089 4.203379,7.01779 1.907088,3.52688 3.645523,7.06577 1.595728,3.49089 3.009824,6.9338 1.23247,3.35893 2.25737,6.64591 0.81732,3.15499 0.66165,2.55519 0.29838,1.10366 0.58381,2.09933 0.25947,0.88772 0.50596,1.66747 0.22054,0.67179 0.4411,1.25959 0.1946,0.49185 0.3892,0.87573 0.16866,0.31191 0.35028,0.52783 0.15568,0.15594 0.60975,0.26392 0.28541,-0.27591 1.11571,-1.5715 0.84328,-1.5835 0.45406,-0.98369 0.90814,-2.08734 0.45408,-1.17563 0.90812,-2.41123 0.4411,-1.25961 1.63465,-5.12237 0.57084,-2.29128 0.50595,-2.21929 0.15569,-0.9477 0.2465,-1.77545 v -0.6478 l -0.23352,-3.74281 -0.37624,-2.65116 -0.29838,-1.39155 -1.45303,-5.7222 -1.10274,-3.03503 -2.45197,-6.17805 -1.53086,-3.167 -3.26929,-6.36998 -1.89412,-3.155 -3.94391,-6.29802 -2.16655,-3.023035 -4.462849,-5.962116 -2.361159,-2.759126 -4.813127,-5.362302 -2.490892,-2.363253 -5.007728,-4.510571 -2.529813,-1.83542 -2.724413,-1.943384 -1.530858,-1.067662 -0.674617,-0.431863 -2.503865,-1.451541 -1.232473,-0.431863 -2.542785,-0.707775 -1.673566,-0.215932 -1.764382,-0.203936 -1.050845,-0.08396 -2.231423,-0.179943 -1.33626,-0.09598 -10.949542,-0.779753 m 97.520977,47.289035 -1.45301,0.34789 -0.79139,0.31191 -1.60869,0.71977 -0.84328,0.49184 -3.42496,2.26728 -1.68654,1.54752 -3.29524,3.32294 -1.38816,1.94338 -1.80331,2.57919 -1.06381,1.5715 -0.41514,0.67179 -0.76543,1.22361 -0.23353,0.43186 -0.36325,0.73176 v 0.11997 l 0.1427,0.10797 0.2465,-0.10797 0.59677,-0.3239 0.4411,-0.3119 0.97301,-0.68379 0.57082,-0.46785 1.2195,-0.98368 0.67462,-0.57582 5.0726,-4.01872 3.47685,-2.42325 1.62167,-0.98367 3.13958,-1.79943 1.27139,-0.56383 1.2195,-0.50384 0.50595,-0.15595 0.93409,-0.22793 h 0.33731 l 1.56977,-0.28791 0.53192,-0.45584 0.0129,-0.3239 -0.1427,-0.73178 -0.32433,-0.44386 -0.8303,-0.9357 -0.67461,-0.51584 -1.51789,-0.6118 -1.23247,-0.0719 m -44.01868,-44.805852 -3.06172,0.311902 -1.414105,0.455855 -0.324334,0.311902 -0.376228,0.635798 0.246493,0.323897 0.830298,0.659792 0.921106,0.263916 1.59573,0.899715 1.53086,1.115646 0.93409,0.755761 1.946,1.64348 1.06382,0.959696 2.14061,1.979374 1.06382,1.055666 3.26929,3.514887 2.15359,2.591179 1.03787,1.39156 4.08661,5.758177 1.75141,2.987044 1.69952,2.975065 0.75245,1.46354 1.4141,2.89108 0.59678,1.39157 1.0768,2.71114 0.40217,1.24761 0.68758,2.41123 0.16866,1.06766 0.5838,2.8431 0.35028,0.9837 0.35029,0.88771 0.16865,0.26392 0.32434,0.43186 h 0.14271 l 0.77841,-0.33589 0.41513,-0.53983 0.15569,-0.39587 0.29838,-0.89972 0.0909,-0.56382 0.16866,-1.19961 0.026,-0.69579 -0.013,-2.98706 -0.20758,-1.70346 -0.55785,-3.52688 -0.49299,-1.78744 -2.71144,-7.953485 -2.23142,-4.82247 -1.36221,-2.219298 -2.90605,-4.354622 -1.73841,-2.063346 -3.67149,-4.054716 -2.16655,-1.979373 -2.17951,-1.955403 -1.28437,-1.10365 -0.5838,-0.467853 -2.12764,-1.643479 -0.89516,-0.527833 -1.69952,-0.875722 -0.79137,-0.227928 -1.58275,-0.299906 m 40.50291,-8.313389 -3.9958,0.09598 -1.5568,0.07197 -1.46599,0.07197 -0.60977,0.04798 -1.1157,0.08397 -0.40217,0.04798 -0.70057,0.09598 -0.19459,0.04798 -0.24651,0.107965 0.0649,0.05997 0.97299,0.575817 1.20654,0.587813 0.81733,0.371884 1.75141,0.779752 1.01191,0.431864 2.08871,0.875723 1.11571,0.455855 2.21846,0.875724 1.02489,0.395874 2.01088,0.755761 0.84328,0.3119 1.58274,0.551826 0.57083,0.179943 0.96003,0.275914 0.18164,0.02399 1.1157,-0.287908 1.25842,-0.491845 0.83029,-0.371882 1.75142,-0.803746 0.99895,-0.491844 2.04979,-1.031673 1.07679,-0.563821 7.78404,-4.150687 -18.05897,-0.03599 m -48.75416,-22.828759 -0.92111,0.875723 -0.37623,1.271597 v 0.815742 l -0.25947,2.231294 -0.42812,1.667472 -0.32433,0.899715 -1.556808,3.706827 -1.102738,1.895399 -2.387104,3.766809 -1.375181,1.679467 -2.828199,3.19099 -1.465994,1.151634 -1.154632,0.923709 -0.480015,0.383878 -0.88219,0.731769 -0.337309,0.299905 -1.102738,1.031672 -0.181627,0.311903 -0.142707,0.50384 0.259467,0.107966 0.72651,0.143954 h 0.64867 l 2.17953,-0.167948 1.699514,-0.25192 0.947059,-0.191938 3.930937,-0.923708 1.984929,-0.611806 3.879046,-1.29559 1.56978,-0.671788 1.47896,-0.671786 0.5838,-0.323898 1.03787,-0.635799 0.31136,-0.287909 1.29734,-1.391558 0.41515,-0.911712 v -0.623803 l -0.16865,-1.427548 -0.29839,-1.091654 -0.35028,-1.175629 -0.22055,-0.707775 -0.49299,-1.523517 -0.29839,-0.923709 -1.76438,-5.974107 -0.41515,-1.655477 -0.12972,-0.635799 -0.1946,-1.127643 v -0.287909 l -0.38921,-1.487529 -0.57083,-0.611806 m 71.34715,23.371804 c -3.9357,8.067204 -5.18998,9.809608 -9.71034,17.367342 l -0.68759,1.163632 -1.49195,2.55519 -0.92109,1.64348 -1.95899,3.550876 -1.21951,2.195304 -1.51788,2.699146 -0.66164,1.139639 -1.2714,2.123325 -0.55785,0.86374 -1.06382,1.59548 -0.46704,0.611815 -0.90815,1.09166 -0.40216,0.37188 -0.77841,0.6358 -0.35028,0.16795 -0.68759,0.20393 -0.3373,-0.036 -0.64867,-0.16795 -0.31137,-0.21595 -0.64868,-0.51582 -0.33729,-0.38389 -0.92112,-1.03166 -0.96003,-1.079665 -0.60974,-0.67179 -2.6855,-3.01105 -1.47896,-1.655475 -2.33521,-2.927073 -1.82925,-2.567187 -0.99895,-1.487529 -4.15148,-6.405972 -1.9979,-3.334945 -1.95899,-3.322948 -0.88219,-1.559506 -1.6606,-3.011047 -0.66163,-1.29559 -1.20653,-2.435229 -0.37624,-0.899715 -0.33729,-0.85173 -0.0909,-0.323897 -0.1557,-0.587814 v -0.179943 l 0.68761,-1.475533 0.55784,-0.371883 0.4022,-0.15595 0.89515,-0.275913 0.5838,-0.119962 1.25842,-0.203935 0.77841,-0.07197 1.68654,-0.143955 1.01193,-0.04798 2.15357,-0.08396 1.25842,-0.012 2.67252,-0.03599 h 1.54385 l 10.37869,-0.227927 3.43796,-0.155952 1.53085,-0.08397 2.90604,-0.191939 1.08976,-0.107967 8.88733,-0.403766 c 0,0 11.12547,-0.306758 8.51628,4.149738 z"
       fill="rgb(9,59,189)"
       id="path1"
       style="fill:url(#radialGradient5);fill-opacity:1;stroke-width:1.24753" />
    <path
       d="M 0,100 V 0 H 100 200 V 100 200 H 100 0 V 100 m 88.67,76.63 0.3,-0.43 0.98,-1.42 0.53,-0.78 1.34,-1.93 4.53,-6.57 1.52,-2.2 3.35,-4.35 0.8,-1.01 1.44,-1.69 1.72,-1.83 1.14,-1.05 2.56,-2.09 1.33,-1.04 2.9,-2.05 2.97,-2.03 6.58,-3.72 3.34,-1.78 6.86,-2.98 1.7,-0.68 3.34,-1.17 4.85,-1.4 1.24,-0.31 2.02,-0.52 0.94,-0.24 1.45,-0.43 0.66,-0.21 0.9,-0.4 0.38,-0.19 0.38,-0.4 0.13,-0.21 -0.1,-0.45 -0.11,-0.24 -0.57,-0.55 -0.34,-0.3 -1,-0.7 -1.95,-1.27 -0.42,-0.27 -1,-0.72 -0.52,-0.39 -1.18,-0.93 -1.21,-0.99 -2.84,-2.5 -1.48,-1.32 -3.19,-3.01 -1.62,-1.55 -3.33,-3.3 -1.66,-1.67 -3.25,-3.38 -1.6,-1.67 -2.96,-3.25 -1.42,-1.58 -2.45,-2.88 -2.88,-3.7 -0.62,-0.89 -1.39,-2.16 -0.71,-1.14 -1.5,-2.57 -1.52,-2.64 -3.1,-5.92 -1.51,-2.97 -2.68,-5.77 -0.61,-1.39 -1.07,-2.56 -1.26,-3.39 -0.23,-0.69 -0.55,-1.88 -0.29,-1.01 -0.6,-2.3 -1.65,-7.12 -0.22,-1.1 -0.61,-2.95 -0.33,-1.57 -0.74,-3.56 -0.37,-1.81 -0.78,-3.72 -1.11,-5.29 -0.35,-1.65 -0.63,-3.19 -0.3,-1.55 -0.48,-2.75 -0.22,-1.29 -0.3,-2 -0.06,-0.44 -0.07,-0.68 -0.03,-0.7 0.03,-0.65 -0.03,-0.88 -0.02,-0.37 -0.15,-0.28 -0.08,-0.07 -0.28,0.35 -0.15,0.26 -0.42,1.01 -0.23,0.59 -0.58,1.71 -0.3,0.94 -0.75,2.44 -0.39,1.31 -0.93,3.2 -1.61,5.69 -0.31,1.1 -0.66,2.12 -0.33,1.04 -0.65,1.83 -0.31,0.86 -0.57,1.34 -0.66,1.21 -0.17,0.21 -0.48,0.73 -0.26,0.41 -0.58,1.03 -1.83,3.62 -0.62,1.36 -1.31,2.45 -0.67,1.18 -1.42,2.14 -0.73,1.03 -1.58,1.85 -0.81,0.89 -1.77,1.61 -0.91,0.77 -2.01,1.38 -1.03,0.67 -2.28,1.2 -1.18,0.58 -2.59,1.05 -4.27,1.44 -1.11,0.33 -2.14,0.45 -1.11,0.2 -2.48,0.21 -1.33,0.07 -3.27,-0.01 -0.89,-0.02 -2.01,-0.07 -3.41,-0.16 -1.68,-0.08 -3.08,-0.1 -1.46,-0.03 -2.43,0.01 -1.11,0.02 -1.52,0.12 -0.31,0.03 -0.41,0.09 -0.25,0.15 v 0.12 l 0.34,0.46 0.22,0.25 0.7,0.68 3.04,2.43 1.03,0.74 2.14,1.7 1.08,0.88 2.23,1.98 1.13,1.03 2.32,2.25 1.16,1.15 2.39,2.5 2.39,2.56 4.94,5.82 7.51,9.64 1.35,1.83 2.61,3.98 1.29,2.04 2.46,4.35 1.21,2.22 2.3,4.67 1.12,2.36 2.11,4.93 1.02,2.49 1.89,5.13 0.92,2.59 1.65,5.28 0.79,2.65 1.39,5.38 1.77,8.1 0.13,0.68 0.36,1.76 0.2,0.93 0.46,2.12 0.48,2.19 1.09,4.73 0.27,1.15 0.52,2.18 0.26,1.05 0.45,1.83 0.21,0.86 0.35,1.32 0.36,1.2 0.12,0.31 0.21,0.38 0.11,0.14 0.23,0.04 0.12,-0.03 0.31,-0.32 0.61,-0.89 0.16,-0.26 0.46,-0.71 0.24,-0.39 0.59,-0.88 0.6,-0.91 m 47.54,-85.26 0.94,-1.83 1.51,-2.96 0.71,-1.37 1.15,-2.13 0.53,-0.97 0.89,-1.38 0.42,-0.6 0.76,-0.73 0.36,-0.29 0.73,-0.17 0.38,-0.02 0.82,0.3 0.44,0.2 1.04,0.67 1.92,1.34 1.3,0.89 2.13,1.46 1,0.68 1.66,1.02 0.78,0.46 1.38,0.6 0.67,0.26 1.27,0.19 0.65,0.05 1.37,-0.19 0.71,-0.15 1.65,-0.57 0.88,-0.33 2.11,-0.93 3.9,-1.8 10.5,-4.83 0.86,-12.66 0.13,-1.92 0.21,-3.1 0.09,-1.45 0.04,-2.32 -0.02,-1.09 -0.27,-1.75 -0.19,-0.82 -0.71,-1.38 -0.43,-0.67 -1.29,-1.22 -0.73,-0.61 -1.99,-1.27 -1.1,-0.66 -2.84,-1.52 -0.77,-0.41 -1.72,-0.9 -2.86,-1.49 -0.89,-0.47 -1.29,-0.58 -0.61,-0.22 -1.21,-0.06 -0.66,0.05 -1.79,0.5 -0.52,0.17 -1.24,0.43 -2.29,0.84 -1.9,0.69 -4.23,1.56 -1.01,0.37 -1.82,0.67 -2.2,0.81 -4.25,1.56 v 7.27 7.28 l -6.15,0.64 -0.84,0.09 -2.24,0.16 -1.18,0.07 -2.65,0.13 -8,0.19 h -1.19 l -2.06,0.03 -0.97,0.01 -1.66,0.07 -0.78,0.04 -1.3,0.12 -0.6,0.06 -0.97,0.17 -0.45,0.1 -0.69,0.23 -0.31,0.13 -0.43,0.31 -0.53,1.23 v 0.15 l 0.12,0.49 0.07,0.27 0.26,0.71 0.29,0.75 0.93,2.03 0.51,1.08 1.28,2.51 0.68,1.3 1.51,2.77 1.54,2.78 3.2,5.34 0.77,1.24 1.41,2.14 1.8,2.44 1.14,1.38 2.07,2.51 0.47,0.56 0.74,0.9 0.71,0.86 0.26,0.32 0.5,0.43 0.24,0.18 0.5,0.14 0.26,0.03 0.53,-0.17 0.27,-0.14 0.6,-0.53 0.31,-0.31 0.7,-0.91 0.36,-0.51 0.82,-1.33 0.43,-0.72 0.98,-1.77 0.51,-0.95 m -39.07,50.75 -0.63,-2.63 -1.74,-5.54 -0.95,-2.8 -2.32,-5.78 -1.23,-2.91 -2.81,-5.89 -1.47,-2.94 -3.24,-5.85 -1.66,-2.91 -3.58,-5.69 -1.83,-2.81 -3.84,-5.38 -1.95,-2.64 -4.03,-4.93 -6.16,-6.75 -6.68,-6.74 8.44,0.65 1.03,0.08 1.72,0.15 0.81,0.07 1.36,0.17 1.29,0.18 1.96,0.59 0.95,0.36 1.93,1.21 0.52,0.36 1.18,0.89 2.1,1.62 1.95,1.53 3.86,3.76 1.92,1.97 3.71,4.47 1.82,2.3 3.44,4.97 1.67,2.52 3.04,5.25 1.46,2.63 2.52,5.31 1.18,2.64 1.89,5.15 0.85,2.53 1.12,4.77 0.23,1.16 0.29,2.21 0.18,3.12 v 0.54 l -0.19,1.48 -0.12,0.79 -0.39,1.85 -0.44,1.91 -1.26,4.27 -0.34,1.05 -0.7,2.01 -0.35,0.98 -0.7,1.74 -0.35,0.82 -0.65,1.32 -0.86,1.31 -0.22,0.23 -0.47,-0.22 -0.12,-0.13 -0.27,-0.44 -0.13,-0.26 -0.3,-0.73 -0.15,-0.41 -0.34,-1.05 -0.17,-0.56 -0.39,-1.39 -0.2,-0.74 -0.45,-1.75 -0.23,-0.92 M 111,128.69 v -0.1 l 0.28,-0.61 0.18,-0.36 0.59,-1.02 0.32,-0.56 0.82,-1.31 1.39,-2.15 1.07,-1.62 2.54,-2.77 1.3,-1.29 2.64,-1.89 0.65,-0.41 1.24,-0.6 0.61,-0.26 1.12,-0.29 0.54,-0.1 0.95,0.06 1.17,0.51 0.52,0.43 0.64,0.78 0.25,0.37 0.11,0.61 -0.01,0.27 -0.41,0.38 -1.21,0.24 h -0.26 l -0.72,0.19 -0.39,0.13 -0.94,0.42 -0.98,0.47 -2.42,1.5 -1.25,0.82 -2.68,2.02 -3.91,3.35 -0.52,0.48 -0.94,0.82 -0.44,0.39 -0.75,0.57 -0.34,0.26 -0.46,0.27 -0.19,0.09 m 1.44,-16.29 -0.13,-0.89 -0.53,-2.01 -0.31,-1.04 -0.83,-2.26 -0.46,-1.16 -1.09,-2.41 -0.58,-1.22 -1.31,-2.48 -1.35,-2.49 -3.15,-4.8 -0.8,-1.16 -1.66,-2.16 -2.52,-2.93 -0.82,-0.88 -1.65,-1.65 -0.82,-0.8 -1.5,-1.37 L 92.32,80.15 91.14,79.22 89.91,78.47 89.2,78.25 88.56,77.7 88.37,77.43 88.66,76.9 88.91,76.64 90,76.26 92.36,76 h 0.65 l 1.22,0.25 0.61,0.19 1.31,0.73 0.69,0.44 1.64,1.37 0.45,0.39 0.99,0.92 1.68,1.63 1.67,1.65 2.83,3.38 1.34,1.72 2.24,3.63 1.05,1.85 1.72,4.02 2.09,6.63 0.38,1.49 0.43,2.94 0.16,1.42 0.01,2.49 -0.02,0.58 -0.13,1 -0.07,0.47 -0.23,0.75 -0.12,0.33 -0.32,0.45 -0.6,0.28 h -0.11 l -0.25,-0.36 -0.13,-0.22 -0.27,-0.74 -0.27,-0.82 M 81.96,69.3 l 1.13,-0.96 2.18,-2.66 1.06,-1.4 1.84,-3.14 0.85,-1.58 1.2,-3.09 0.25,-0.75 0.33,-1.39 0.2,-1.86 V 51.79 L 91.29,50.73 92,50 h 0.27 l 0.44,0.51 0.3,1.24 v 0.24 l 0.15,0.94 0.1,0.53 0.32,1.38 1.36,4.98 0.23,0.77 0.38,1.27 0.17,0.59 0.27,0.98 0.23,0.91 0.13,1.19 v 0.52 l -0.32,0.76 -1,1.16 -0.24,0.24 -0.8,0.53 -0.45,0.27 -1.14,0.56 -1.21,0.56 -2.99,1.08 -1.53,0.51 -3.03,0.77 -0.73,0.16 -1.31,0.21 -1.68,0.14 h -0.5 l -0.56,-0.12 -0.2,-0.09 0.11,-0.42 0.14,-0.26 0.85,-0.86 0.26,-0.25 0.68,-0.61 0.37,-0.32 m 42.19,3.01 -0.86,-0.38 -1.61,-0.73 -0.78,-0.36 -1.35,-0.65 -0.63,-0.31 -0.93,-0.49 -0.75,-0.48 -0.05,-0.05 0.19,-0.09 0.15,-0.04 0.54,-0.08 0.31,-0.04 0.86,-0.07 0.47,-0.04 1.13,-0.06 1.2,-0.06 3.08,-0.08 5.35,-0.04 13.92,0.03 -6,3.46 -0.83,0.47 -1.58,0.86 -0.77,0.41 -1.35,0.67 -0.64,0.31 -0.97,0.41 -0.86,0.24 -0.14,-0.02 -0.74,-0.23 -0.44,-0.15 -1.22,-0.46 -0.65,-0.26 -1.55,-0.63 -0.79,-0.33 m 33.45,-12.5 -0.26,-0.2 -1.01,-0.64 -0.58,-0.35 -1.49,-0.89 -5.32,-2.99 -0.93,-0.5 -1.63,-0.97 -0.77,-0.47 -1.22,-0.84 -0.54,-0.39 -0.67,-0.61 -0.24,-0.54 0.1,-0.1 0.62,-0.3 0.37,-0.17 1.05,-0.42 4.1,-1.43 1.51,-0.48 3.31,-1.18 0.79,-0.29 1.41,-0.55 1.67,-0.7 0.76,-0.35 1.16,-0.4 0.56,-0.13 1.15,0.12 0.61,0.13 1.65,0.75 0.47,0.23 1.12,0.6 2.02,1.12 0.99,0.56 1.74,0.99 0.83,0.48 1.42,0.85 0.68,0.4 1.11,0.71 0.52,0.34 0.83,0.59 0.39,0.28 0.56,0.48 0.24,0.22 0.31,0.38 0.06,0.82 -0.09,0.08 -0.83,0.42 -0.5,0.25 -1.51,0.67 -0.82,0.35 -2,0.84 -3.33,1.33 -0.94,0.37 -1.59,0.61 -0.75,0.29 -1.26,0.45 -0.6,0.21 -0.98,0.3 -0.47,0.13 -0.76,0.17 -0.72,0.13 -1.01,-0.11 -0.47,-0.11 z"
       fill="rgb(254,254,254)"
       id="path2"
       style="fill:none" />
  </g>
</svg>
