<svg version="1.1" width="800" height="200" viewBox="0 0 800 200" xmlns="http://www.w3.org/2000/svg">
  <defs>
    <linearGradient id="logoGradient-light">
      <stop offset="0.19546744" style="stop-color: hsl(210, 100%, 46%); stop-opacity: 1" />
      <stop offset="0.82058549" style="stop-color: hsl(215, 100%, 36%); stop-opacity: 1" />
      <stop offset="1" style="stop-color: hsl(215, 100%, 36%); stop-opacity: 0" />
    </linearGradient>
    <radialGradient href="#logoGradient-light" id="radialGradient-light" cx="83.950562" cy="104.78512" fx="83.950562" fy="104.78512" r="99.242218" gradientTransform="matrix(0.92986237,0.00336082,-0.00372166,1.01996,20.55365,-4.6264179)" gradientUnits="userSpaceOnUse" />
  </defs>
  <!-- Logo Icon -->
  <g style="fill: #ffffff">
    <path d="m 96.987123,-3.3608776 c 0.188349,1.4847871 0.267579,2.0793765 0.451295,3.40655781 l 0.09081,0.8157417 0.07784,0.52783279 0.389201,2.3992405 0.285415,1.54751 0.622723,3.2989549 0.389202,1.8594129 0.817321,3.826788 0.45407,1.979374 1.44005,6.345991 1.01192,4.462586 0.48002,2.171313 0.96002,4.270648 0.42813,1.883404 0.79137,3.538879 0.28542,1.319583 2.14061,8.541295 0.7784,2.759127 0.37623,1.211616 0.71353,2.255286 0.29839,0.827738 1.63465,4.066712 1.38815,3.071028 0.79138,1.667472 3.47688,6.921809 1.95899,3.562872 4.02175,7.101751 1.97197,3.166998 1.946,3.083024 0.9211,1.367567 1.80331,2.591179 0.80434,1.067663 3.73633,4.438589 3.1785,3.454915 1.84222,1.8954 3.84012,3.89877 2.07574,2.00336 4.21634,4.05472 2.1536,2.00336 4.32014,3.95875 2.10168,1.85942 4.13851,3.61086 1.92007,1.58349 3.68444,2.99906 1.56978,1.18762 1.53087,1.11564 0.6746,0.46786 1.29734,0.86371 0.54489,0.3239 2.5298,1.52353 1.29735,0.83972 0.44109,0.3599 0.73948,0.65979 0.14271,0.28791 0.12974,0.53982 -0.16865,0.25193 -0.49299,0.47985 -0.49299,0.22792 -1.16761,0.47985 -0.85624,0.25192 -1.88114,0.51584 -1.2195,0.28791 -2.62062,0.6238 -1.60871,0.37188 -6.29209,1.67947 -4.33312,1.40355 -2.20548,0.81575 -8.89974,3.57487 -4.33311,2.13532 -8.53649,4.46259 -3.85309,2.43522 -3.7623,2.45923 -1.72545,1.2476 -3.32119,2.5072 -1.47897,1.25961 -2.23142,2.1953 -1.86818,2.02735 -1.03787,1.21163 -4.34609,5.21835 -1.97196,2.63916 -5.87694,7.88151 -1.73844,2.31527 -0.68759,0.93569 -1.271387,1.70347 -0.389202,0.51584 -1.647619,2.21929 -0.778404,1.09165 -0.765432,1.05568 -0.311361,0.46785 -0.596775,0.85173 -0.207574,0.3119 -0.791378,1.06766 -0.402175,0.38387 -0.155681,0.036 -0.298387,-0.048 -0.142708,-0.16795 -0.272441,-0.45586 -0.15568,-0.37188 -0.467044,-1.43954 -0.454068,-1.58349 -0.27244,-1.03168 -0.583804,-2.1953 -0.337308,-1.25961 -0.674617,-2.61517 -0.350281,-1.37957 -1.414099,-5.6742 -0.622724,-2.62716 -0.596775,-2.5432 -0.259469,-1.11564 -0.467043,-2.11134 -0.168653,-0.81574 -2.29629,-9.71692 -1.803302,-6.45396 -1.024897,-3.179 -2.14061,-6.33399 -1.193552,-3.10701 -2.451971,-6.15406 -1.323287,-2.98705 -2.737384,-5.91413 -1.453021,-2.8311 -2.98388,-5.60223 -1.56978,-2.66315 -3.191455,-5.21836 -1.673568,-2.44722 -3.386056,-4.7745 -1.751407,-2.1953 -9.743017,-11.56433 -6.408854,-6.981789 -3.100642,-3.071029 -3.100641,-2.999049 -1.504913,-1.379564 -3.009827,-2.699145 -1.465994,-1.235609 -2.893066,-2.375249 -1.401127,-1.055665 -2.776305,-2.039354 -1.33626,-0.887719 -3.943911,-2.915077 -0.908137,-0.815742 -0.285415,-0.299906 -0.441095,-0.551824 v -0.143955 l 0.324334,-0.179942 0.531909,-0.107966 0.402176,-0.03599 1.971955,-0.143955 1.440047,-0.02399 3.152534,-0.012 1.894116,0.03598 3.995804,0.119963 2.179531,0.09596 4.423926,0.19194 2.607652,0.08396 1.154632,0.02399 4.242299,0.012 1.725463,-0.08396 3.217399,-0.25192 1.440048,-0.239923 2.776306,-0.53983 1.440045,-0.395876 5.539639,-1.727452 3.360108,-1.2596 1.530862,-0.695781 2.957933,-1.439543 1.336259,-0.803746 2.607652,-1.655476 1.180578,-0.923708 2.296291,-1.931389 1.050845,-1.067662 2.049795,-2.219297 0.947058,-1.235609 c 5.985148,-7.223147 7.971046,-12.195259 10.378714,-17.202553 l 0.739484,-1.607492 0.402175,-1.031673 0.843271,-2.195305 0.428121,-1.247604 0.856244,-2.543195 0.402176,-1.319584 2.088716,-6.825837 1.206525,-3.8387863 0.505962,-1.5715019 0.973005,-2.9270734 0.389201,-1.1276348 0.752456,-2.05135059 0.298389,-0.70777591 0.544882,-1.2116165 0.194602,-0.3119012 m -39.036937,79.6787846 7.991608,8.097436 5.228278,5.914127 2.529811,3.166998 4.981783,6.453966 2.374131,3.37093 4.644474,6.82584 2.153584,3.49089 4.203379,7.01779 1.907088,3.52688 3.645523,7.06577 1.595728,3.49089 3.009824,6.9338 1.23247,3.35893 2.25737,6.64591 0.81732,3.15499 0.66165,2.55519 0.29838,1.10366 0.58381,2.09933 0.25947,0.88772 0.50596,1.66747 0.22054,0.67179 0.4411,1.25959 0.1946,0.49185 0.3892,0.87573 0.16866,0.31191 0.35028,0.52783 0.15568,0.15594 0.60975,0.26392 0.28541,-0.27591 1.11571,-1.5715 0.84328,-1.5835 0.45406,-0.98369 0.90814,-2.08734 0.45408,-1.17563 0.90812,-2.41123 0.4411,-1.25961 1.63465,-5.12237 0.57084,-2.29128 0.50595,-2.21929 0.15569,-0.9477 0.2465,-1.77545 v -0.6478 l -0.23352,-3.74281 -0.37624,-2.65116 -0.29838,-1.39155 -1.45303,-5.7222 -1.10274,-3.03503 -2.45197,-6.17805 -1.53086,-3.167 -3.26929,-6.36998 -1.89412,-3.155 -3.94391,-6.29802 -2.16655,-3.023035 -4.462849,-5.962116 -2.361159,-2.759126 -4.813127,-5.362302 -2.490892,-2.363253 -5.007728,-4.510571 -2.529813,-1.83542 -2.724413,-1.943384 -1.530858,-1.067662 -0.674617,-0.431863 -2.503865,-1.451541 -1.232473,-0.431863 -2.542785,-0.707775 -1.673566,-0.215932 -1.764382,-0.203936 -1.050845,-0.08396 -2.231423,-0.179943 -1.33626,-0.09598 -10.949542,-0.779753 m 97.520977,47.289035 -1.45301,0.34789 -0.79139,0.31191 -1.60869,0.71977 -0.84328,0.49184 -3.42496,2.26728 -1.68654,1.54752 -3.29524,3.32294 -1.38816,1.94338 -1.80331,2.57919 -1.06381,1.5715 -0.41514,0.67179 -0.76543,1.22361 -0.23353,0.43186 -0.36325,0.73176 v 0.11997 l 0.1427,0.10797 0.2465,-0.10797 0.59677,-0.3239 0.4411,-0.3119 0.97301,-0.68379 0.57082,-0.46785 1.2195,-0.98368 0.67462,-0.57582 5.0726,-4.01872 3.47685,-2.42325 1.62167,-0.98367 3.13958,-1.79943 1.27139,-0.56383 1.2195,-0.50384 0.50595,-0.15595 0.93409,-0.22793 h 0.33731 l 1.56977,-0.28791 0.53192,-0.45584 0.0129,-0.3239 -0.1427,-0.73178 -0.32433,-0.44386 -0.8303,-0.9357 -0.67461,-0.51584 -1.51789,-0.6118 -1.23247,-0.0719 m -44.01868,-44.805852 -3.06172,0.311902 -1.414105,0.455855 -0.324334,0.311902 -0.376228,0.635798 0.246493,0.323897 0.830298,0.659792 0.921106,0.263916 1.59573,0.899715 1.53086,1.115646 0.93409,0.755761 1.946,1.64348 1.06382,0.959696 2.14061,1.979374 1.06382,1.055666 3.26929,3.514887 2.15359,2.591179 1.03787,1.39156 4.08661,5.758177 1.75141,2.987044 1.69952,2.975065 0.75245,1.46354 1.4141,2.89108 0.59678,1.39157 1.0768,2.71114 0.40217,1.24761 0.68758,2.41123 0.16866,1.06766 0.5838,2.8431 0.35028,0.9837 0.35029,0.88771 0.16865,0.26392 0.32434,0.43186 h 0.14271 l 0.77841,-0.33589 0.41513,-0.53983 0.15569,-0.39587 0.29838,-0.89972 0.0909,-0.56382 0.16866,-1.19961 0.026,-0.69579 -0.013,-2.98706 -0.20758,-1.70346 -0.55785,-3.52688 -0.49299,-1.78744 -2.71144,-7.953485 -2.23142,-4.82247 -1.36221,-2.219298 -2.90605,-4.354622 -1.73841,-2.063346 -3.67149,-4.054716 -2.16655,-1.979373 -2.17951,-1.955403 -1.28437,-1.10365 -0.5838,-0.467853 -2.12764,-1.643479 -0.89516,-0.527833 -1.69952,-0.875722 -0.79137,-0.227928 -1.58275,-0.299906 m 40.50291,-8.313389 -3.9958,0.09598 -1.5568,0.07197 -1.46599,0.07197 -0.60977,0.04798 -1.1157,0.08397 -0.40217,0.04798 -0.70057,0.09598 -0.19459,0.04798 -0.24651,0.107965 0.0649,0.05997 0.97299,0.575817 1.20654,0.587813 0.81733,0.371884 1.75141,0.779752 1.01191,0.431864 2.08871,0.875723 1.11571,0.455855 2.21846,0.875724 1.02489,0.395874 2.01088,0.755761 0.84328,0.3119 1.58274,0.551826 0.57083,0.179943 0.96003,0.275914 0.18164,0.02399 1.1157,-0.287908 1.25842,-0.491845 0.83029,-0.371882 1.75142,-0.803746 0.99895,-0.491844 2.04979,-1.031673 1.07679,-0.563821 7.78404,-4.150687 -18.05897,-0.03599 m -48.75416,-22.828759 -0.92111,0.875723 -0.37623,1.271597 v 0.815742 l -0.25947,2.231294 -0.42812,1.667472 -0.32433,0.899715 -1.556808,3.706827 -1.102738,1.895399 -2.387104,3.766809 -1.375181,1.679467 -2.828199,3.19099 -1.465994,1.151634 -1.154632,0.923709 -0.480015,0.383878 -0.88219,0.731769 -0.337309,0.299905 -1.102738,1.031672 -0.181627,0.311903 -0.142707,0.50384 0.259467,0.107966 0.72651,0.143954 h 0.64867 l 2.17953,-0.167948 1.699514,-0.25192 0.947059,-0.191938 3.930937,-0.923708 1.984929,-0.611806 3.879046,-1.29559 1.56978,-0.671788 1.47896,-0.671786 0.5838,-0.323898 1.03787,-0.635799 0.31136,-0.287909 1.29734,-1.391558 0.41515,-0.911712 v -0.623803 l -0.16865,-1.427548 -0.29839,-1.091654 -0.35028,-1.175629 -0.22055,-0.707775 -0.49299,-1.523517 -0.29839,-0.923709 -1.76438,-5.974107 -0.41515,-1.655477 -0.12972,-0.635799 -0.1946,-1.127643 v -0.287909 l -0.38921,-1.487529 -0.57083,-0.611806 m 71.34715,23.371804 c -3.9357,8.067204 -5.18998,9.809608 -9.71034,17.367342 l -0.68759,1.163632 -1.49195,2.55519 -0.92109,1.64348 -1.95899,3.550876 -1.21951,2.195304 -1.51788,2.699146 -0.66164,1.139639 -1.2714,2.123325 -0.55785,0.86374 -1.06382,1.59548 -0.46704,0.611815 -0.90815,1.09166 -0.40216,0.37188 -0.77841,0.6358 -0.35028,0.16795 -0.68759,0.20393 -0.3373,-0.036 -0.64867,-0.16795 -0.31137,-0.21595 -0.64868,-0.51582 -0.33729,-0.38389 -0.92112,-1.03166 -0.96003,-1.079665 -0.60974,-0.67179 -2.6855,-3.01105 -1.47896,-1.655475 -2.33521,-2.927073 -1.82925,-2.567187 -0.99895,-1.487529 -4.15148,-6.405972 -1.9979,-3.334945 -1.95899,-3.322948 -0.88219,-1.559506 -1.6606,-3.011047 -0.66163,-1.29559 -1.20653,-2.435229 -0.37624,-0.899715 -0.33729,-0.85173 -0.0909,-0.323897 -0.1557,-0.587814 v -0.179943 l 0.68761,-1.475533 0.55784,-0.371883 0.4022,-0.15595 0.89515,-0.275913 0.5838,-0.119962 1.25842,-0.203935 0.77841,-0.07197 1.68654,-0.143955 1.01193,-0.04798 2.15357,-0.08396 1.25842,-0.012 2.67252,-0.03599 h 1.54385 l 10.37869,-0.227927 3.43796,-0.155952 1.53085,-0.08397 2.90604,-0.191939 1.08976,-0.107967 8.88733,-0.403766 c 0,0 11.12547,-0.306758 8.51628,4.149738 z" fill="url(#radialGradient-light)" style="fill-opacity: 1; stroke-width: 1.24753" />
  </g>

  <!-- ARIANA Text -->
  <text x="230" y="110" font-family="Arial, Helvetica, sans-serif" font-size="115" font-weight="bold" fill="hsl(210, 100%, 46%)" letter-spacing="8" dominant-baseline="middle">ARIANA</text>
</svg>
